<svg width="14" height="11" viewBox="0 0 14 11" fill="none" xmlns="http://www.w3.org/2000/svg">
<path d="M5.41667 3.08335V6.14585C5.41667 7.52291 4.76832 8.81961 3.66667 9.64585L3.08333 10.0833M5.41667 3.08335C5.41667 3.39296 5.41667 3.54777 5.39956 3.67773C5.2814 4.5752 4.57519 5.28142 3.67772 5.39957C3.54775 5.41668 3.39295 5.41668 3.08333 5.41668C2.77372 5.41668 2.61891 5.41668 2.48895 5.39957C1.59148 5.28142 0.885264 4.5752 0.76711 3.67773C0.75 3.54777 0.75 3.39296 0.75 3.08335C0.75 2.77374 0.75 2.61893 0.76711 2.48896C0.885264 1.5915 1.59148 0.885279 2.48895 0.767126C2.61891 0.750015 2.77372 0.750015 3.08333 0.750015C3.39295 0.750015 3.54775 0.750015 3.67772 0.767126C4.57519 0.885279 5.2814 1.5915 5.39956 2.48896C5.41667 2.61893 5.41667 2.77374 5.41667 3.08335ZM12.4167 3.08335V6.14585C12.4167 7.52291 11.7683 8.81961 10.6667 9.64585L10.0833 10.0833M12.4167 3.08335C12.4167 3.39296 12.4167 3.54777 12.3996 3.67773C12.2814 4.5752 11.5752 5.28142 10.6777 5.39957C10.5478 5.41668 10.3929 5.41668 10.0833 5.41668C9.77372 5.41668 9.61891 5.41668 9.48895 5.39957C8.59148 5.28142 7.88526 4.5752 7.76711 3.67773C7.75 3.54777 7.75 3.39296 7.75 3.08335C7.75 2.77374 7.75 2.61893 7.76711 2.48896C7.88526 1.5915 8.59148 0.885279 9.48895 0.767126C9.61891 0.750015 9.77372 0.750015 10.0833 0.750015C10.3929 0.750015 10.5478 0.750015 10.6777 0.767126C11.5752 0.885279 12.2814 1.5915 12.3996 2.48896C12.4167 2.61893 12.4167 2.77374 12.4167 3.08335Z" stroke="black" stroke-opacity="0.54" stroke-width="1.5" stroke-linecap="round" stroke-linejoin="round"/>
</svg>
