<svg width="13" height="12" viewBox="0 0 13 12" fill="none" xmlns="http://www.w3.org/2000/svg">
<path d="M4.54167 10.375L12.125 10.375M4.54167 5.70833L12.125 5.70833M4.54167 1.04167L12.125 1.04167M1.33333 1.04167C1.33333 1.20275 1.20275 1.33333 1.04167 1.33333C0.880584 1.33333 0.75 1.20275 0.75 1.04167M1.33333 1.04167C1.33333 0.880584 1.20275 0.75 1.04167 0.75C0.880584 0.75 0.75 0.880584 0.75 1.04167M1.33333 1.04167L0.75 1.04167M1.33333 5.70833C1.33333 5.86942 1.20275 6 1.04167 6C0.880584 6 0.75 5.86942 0.75 5.70833M1.33333 5.70833C1.33333 5.54725 1.20275 5.41667 1.04167 5.41667C0.880584 5.41667 0.75 5.54725 0.75 5.70833M1.33333 5.70833L0.75 5.70833M1.33333 10.375C1.33333 10.5361 1.20275 10.6667 1.04167 10.6667C0.880584 10.6667 0.75 10.5361 0.75 10.375M1.33333 10.375C1.33333 10.2139 1.20275 10.0833 1.04167 10.0833C0.880584 10.0833 0.75 10.2139 0.75 10.375M1.33333 10.375L0.75 10.375" stroke="black" stroke-opacity="0.54" stroke-width="1.5" stroke-linecap="round" stroke-linejoin="round"/>
</svg>
