<svg width="19" height="19" viewBox="0 0 19 19" fill="none" xmlns="http://www.w3.org/2000/svg">
<path d="M5.75 5.75001L5.75 5.33336C5.75 4.79157 5.75 4.52067 5.77621 4.29284C5.9887 2.44582 7.44581 0.988709 9.29283 0.776217C9.52067 0.750006 9.79156 0.750006 10.3334 0.750006L11.5833 0.750006C13.2908 0.750006 14.1445 0.750006 14.8257 1.00638C15.9037 1.41213 16.7545 2.26295 17.1603 3.34101C17.4167 4.02218 17.4167 4.8759 17.4167 6.58334L17.4167 11.5833C17.4167 13.2908 17.4167 14.1445 17.1603 14.8257C16.7545 15.9037 15.9037 16.7545 14.8257 17.1603C14.1445 17.4167 13.2908 17.4167 11.5833 17.4167H10.3333C9.79156 17.4167 9.52068 17.4167 9.29287 17.3905C7.44582 17.178 5.98868 15.7209 5.77621 13.8738C5.75 13.646 5.75 13.3751 5.75 12.8334L5.75 12.4167M0.75 9.08334H13.25M13.25 9.08334L9.91667 5.75001M13.25 9.08334L9.91667 12.4167" stroke="black" stroke-width="1.5" stroke-linecap="round" stroke-linejoin="round"/>
</svg>
