<svg width="15" height="15" viewBox="0 0 15 15" fill="none" xmlns="http://www.w3.org/2000/svg">
<path d="M6.15082 8.82336L6.43539 9.56328C7.49022 12.306 8.01763 13.6773 8.72585 14.0222C9.33838 14.3205 10.0606 14.2865 10.6424 13.9319C11.3151 13.522 11.7113 12.1071 12.5036 9.27745L13.6169 5.3016C14.1185 3.51008 14.3693 2.61432 14.1365 1.99964C13.9336 1.46372 13.5105 1.0406 12.9745 0.837632C12.3599 0.604834 11.4641 0.855647 9.67257 1.35727L5.69666 2.47053C2.86699 3.26284 1.45215 3.65899 1.04218 4.33164C0.687599 4.91341 0.653568 5.63567 0.951877 6.24821C1.29678 6.95643 2.6681 7.48386 5.41074 8.53872L6.15082 8.82336ZM6.15082 8.82336L8.02582 6.94836" stroke="#2F384C" stroke-width="1.5" stroke-linecap="round" stroke-linejoin="round"/>
</svg>
