<svg width="18" height="15" viewBox="0 0 18 15" fill="none" xmlns="http://www.w3.org/2000/svg">
<path d="M10.5 4.87503C10.5 5.08214 10.3321 5.25003 10.125 5.25003C9.9179 5.25003 9.75 5.08214 9.75 4.87503M10.5 4.87503C10.5 4.66792 10.3321 4.50003 10.125 4.50003C9.9179 4.50003 9.75 4.66792 9.75 4.87503M10.5 4.87503L9.75 4.87503M14.25 9.7501L14.25 5.2501C14.7614 4.86653 15.0171 4.67474 15.2121 4.59983C16.0351 4.2837 16.952 4.74212 17.1929 5.5902C17.25 5.79116 17.25 6.1108 17.25 6.75007L17.25 8.25009C17.25 8.88938 17.25 9.20902 17.1929 9.41C16.952 10.2581 16.0352 10.7165 15.2122 10.4004C15.0171 10.3255 14.7614 10.1337 14.25 9.7501ZM7.5 14.25C5.87228 14.25 5.05842 14.25 4.3928 14.0623C2.71847 13.5901 1.40993 12.2816 0.937724 10.6072C0.75 9.94161 0.75 9.12775 0.75 7.50003C0.75 5.87231 0.75 5.05845 0.937724 4.39283C1.40993 2.7185 2.71847 1.40996 4.3928 0.937754C5.05842 0.750031 5.87228 0.750031 7.5 0.750031C9.12773 0.750031 9.94159 0.750031 10.6072 0.937754C12.2815 1.40996 13.5901 2.7185 14.0623 4.39283C14.25 5.05845 14.25 5.87231 14.25 7.50003C14.25 9.12775 14.25 9.94161 14.0623 10.6072C13.5901 12.2816 12.2815 13.5901 10.6072 14.0623C9.94159 14.25 9.12773 14.25 7.5 14.25Z" stroke="black" stroke-opacity="0.63" stroke-width="1.5" stroke-linecap="round" stroke-linejoin="round"/>
</svg>
